<svg width="40" height="40" viewBox="0 0 40 40" fill="none" xmlns="http://www.w3.org/2000/svg">
<g id="logos:whatsapp-icon" clip-path="url(#clip0_328_605)">
<path id="Vector" d="M1.15774 19.7606C1.15681 23.1214 2.03495 26.4029 3.70471 29.2953L0.998047 39.1778L11.1115 36.526C13.9088 38.0489 17.0429 38.8468 20.2278 38.847H20.2362C30.7501 38.847 39.3087 30.2915 39.3132 19.7757C39.3153 14.68 37.3326 9.88837 33.7304 6.28341C30.1289 2.67876 25.339 0.692557 20.2354 0.690231C9.72022 0.690231 1.16223 9.24527 1.15789 19.7606" fill="url(#paint0_linear_328_605)"/>
<path id="Vector_2" d="M0.476438 19.7544C0.475353 23.2361 1.38497 26.635 3.11427 29.631L0.310547 39.8677L10.7867 37.1209C13.6732 38.6947 16.9231 39.5245 20.2301 39.5257H20.2386C31.1298 39.5257 39.9958 30.6625 40.0005 19.7702C40.0023 14.4915 37.9484 9.5276 34.2175 5.79349C30.4862 2.05984 25.525 0.00217054 20.2386 0C9.34558 0 0.480779 8.86202 0.476438 19.7544ZM6.7152 29.115L6.32404 28.4941C4.67969 25.8795 3.81179 22.8581 3.81303 19.7557C3.81659 10.7022 11.1847 3.33643 20.2448 3.33643C24.6324 3.33829 28.7558 5.04868 31.8572 8.15194C34.9585 11.2555 36.665 15.3811 36.6639 19.769C36.6598 28.8225 29.2916 36.1891 20.2386 36.1891H20.2321C17.2843 36.1876 14.3933 35.396 11.8721 33.9L11.2721 33.5442L5.05535 35.1741L6.7152 29.1149V29.115Z" fill="url(#paint1_linear_328_605)"/>
<path id="Vector_3" d="M15.2996 11.4958C14.9297 10.6736 14.5404 10.6571 14.1886 10.6426C13.9005 10.6302 13.5712 10.6312 13.2422 10.6312C12.9129 10.6312 12.3779 10.755 11.9256 11.2488C11.4729 11.7431 10.1973 12.9375 10.1973 15.3668C10.1973 17.7963 11.9667 20.144 12.2134 20.4738C12.4604 20.8029 15.6294 25.9478 20.6483 27.927C24.8194 29.5718 25.6683 29.2447 26.5735 29.1622C27.479 29.08 29.4951 27.9681 29.9064 26.815C30.318 25.6622 30.318 24.674 30.1946 24.4674C30.0712 24.2617 29.7419 24.1381 29.2481 23.8913C28.7542 23.6443 26.3266 22.4498 25.874 22.285C25.4213 22.1203 25.0921 22.0381 24.7628 22.5326C24.4335 23.0262 23.488 24.1381 23.1997 24.4674C22.9118 24.7975 22.6236 24.8386 22.13 24.5916C21.6359 24.3439 20.0456 23.8231 18.159 22.1411C16.6911 20.8322 15.7001 19.216 15.412 18.7216C15.1239 18.2279 15.3811 17.9603 15.6287 17.7143C15.8506 17.493 16.1227 17.1377 16.3698 16.8495C16.616 16.5611 16.6982 16.3554 16.8628 16.026C17.0277 15.6964 16.9452 15.4081 16.8219 15.1611C16.6982 14.9141 15.7387 12.4721 15.2996 11.4958Z" fill="white"/>
</g>
<defs>
<linearGradient id="paint0_linear_328_605" x1="1916.76" y1="3849.45" x2="1916.76" y2="0.690231" gradientUnits="userSpaceOnUse">
<stop stop-color="#1FAF38"/>
<stop offset="1" stop-color="#60D669"/>
</linearGradient>
<linearGradient id="paint1_linear_328_605" x1="1984.81" y1="3986.77" x2="1984.81" y2="0" gradientUnits="userSpaceOnUse">
<stop stop-color="#F9F9F9"/>
<stop offset="1" stop-color="white"/>
</linearGradient>
<clipPath id="clip0_328_605">
<rect width="39.6899" height="40" fill="white" transform="translate(0.310547)"/>
</clipPath>
</defs>
</svg>
